{
  "accessors": [
    {
      "bufferView": 2,
      "componentType": 5126,
      "count": 23458,
      "max": [
        0.7633240222930908,
        0.9827399849891663,
        0.6010400056838989
      ],
      "min": [
        -0.7620689868927002,
        -0.9957389831542969,
        -0.608797013759613
      ],
      "type": "VEC3"
    },
    {
      "bufferView": 2,
      "byteOffset": 281496,
      "componentType": 5126,
      "count": 23458,
      "max": [
        1.0,
        1.0,
        1.0
      ],
      "min": [
        -1.0,
        -1.0,
        -0.9999866485595703
      ],
      "type": "VEC3"
    },
    {
      "bufferView": 1,
      "componentType": 5126,
      "count": 23458,
      "max": [
        0.9995689988136292,
        0.9995579719543457
      ],
      "min": [
        0.0004309999931138009,
        0.0004419999895617366
      ],
      "type": "VEC2"
    },
    {
      "bufferView": 1,
      "byteOffset": 187664,
      "componentType": 5126,
      "count": 23458,
      "max": [
        0.9995689988136292,
        0.9995579719543457
      ],
      "min": [
        0.0004309999931138009,
        0.0004419999895617366
      ],
      "type": "VEC2"
    },
    {
      "bufferView": 1,
      "byteOffset": 375328,
      "componentType": 5126,
      "count": 23458,
      "max": [
        0.9995689988136292,
        0.9995579719543457
      ],
      "min": [
        0.0004309999931138009,
        0.0004419999895617366
      ],
      "type": "VEC2"
    },
    {
      "bufferView": 1,
      "byteOffset": 562992,
      "componentType": 5126,
      "count": 23458,
      "max": [
        0.9995689988136292,
        0.9995579719543457
      ],
      "min": [
        0.0004309999931138009,
        0.0004419999895617366
      ],
      "type": "VEC2"
    },
    {
      "bufferView": 0,
      "componentType": 5125,
      "count": 73818,
      "type": "SCALAR"
    }
  ],
  "asset": {
    "extras": {
      "author": "lonnieh (https://sketchfab.com/lonnieh)",
      "license": "CC-BY-4.0 (http://creativecommons.org/licenses/by/4.0/)",
      "source": "https://sketchfab.com/3d-models/haunted-house-halloween-pack-34973202fc2f41349b696796f7291cb9",
      "title": "Haunted House — Halloween Pack"
    },
    "generator": "Sketchfab-0.12.0",
    "version": "2.0"
  },
  "bufferViews": [
    {
      "buffer": 0,
      "byteLength": 295272,
      "name": "floatBufferViews",
      "target": 34963
    },
    {
      "buffer": 0,
      "byteLength": 750656,
      "byteOffset": 295272,
      "byteStride": 8,
      "name": "floatBufferViews",
      "target": 34962
    },
    {
      "buffer": 0,
      "byteLength": 562992,
      "byteOffset": 1045928,
      "byteStride": 12,
      "name": "floatBufferViews",
      "target": 34962
    }
  ],
  "buffers": [
    {
      "byteLength": 1608920,
      "uri": "scene.bin"
    }
  ],
  "images": [
    {
      "uri": "textures/Material_baseColor.jpeg"
    },
    {
      "uri": "textures/Material_metallicRoughness.png"
    }
  ],
  "materials": [
    {
      "name": "Material",
      "occlusionTexture": {
        "index": 1
      },
      "pbrMetallicRoughness": {
        "baseColorTexture": {
          "index": 0
        },
        "metallicRoughnessTexture": {
          "index": 1
        }
      }
    }
  ],
  "meshes": [
    {
      "name": "Object_0",
      "primitives": [
        {
          "attributes": {
            "NORMAL": 1,
            "POSITION": 0,
            "TEXCOORD_0": 2,
            "TEXCOORD_1": 3,
            "TEXCOORD_2": 4,
            "TEXCOORD_3": 5
          },
          "indices": 6,
          "material": 0,
          "mode": 4
        }
      ]
    }
  ],
  "nodes": [
    {
      "children": [
        1
      ],
      "matrix": [
        1.0,
        0.0,
        0.0,
        0.0,
        0.0,
        2.220446049250313e-16,
        -1.0,
        0.0,
        0.0,
        1.0,
        2.220446049250313e-16,
        0.0,
        0.0,
        0.0,
        0.0,
        1.0
      ],
      "name": "Sketchfab_model"
    },
    {
      "children": [
        2
      ],
      "name": "root"
    },
    {
      "children": [
        3
      ],
      "matrix": [
        1.0,
        0.0,
        0.0,
        0.0,
        0.0,
        2.220446049250313e-16,
        1.0,
        0.0,
        0.0,
        -1.0,
        2.220446049250313e-16,
        0.0,
        0.0,
        0.0,
        0.0,
        1.0
      ],
      "name": "GLTF_SceneRootNode"
    },
    {
      "children": [
        4
      ],
      "name": "textured_mesh_0"
    },
    {
      "mesh": 0,
      "name": "Object_4"
    }
  ],
  "samplers": [
    {
      "magFilter": 9729,
      "minFilter": 9729,
      "wrapS": 10497,
      "wrapT": 10497
    }
  ],
  "scene": 0,
  "scenes": [
    {
      "name": "Sketchfab_Scene",
      "nodes": [
        0
      ]
    }
  ],
  "textures": [
    {
      "sampler": 0,
      "source": 0
    },
    {
      "sampler": 0,
      "source": 1
    }
  ]
}
